<svg xmlns="http://www.w3.org/2000/svg">
  <svg id="align-bottom" viewBox="0 0 20 20">
    <path d="M3.12 14h13.75c.69 0 1.13.4 1.13 1v2.01c0 .6-.45.99-1.13.99H3.13C2.44 18 2 17.6 2 17v-2c0-.6.45-.99 1.13-.99V14zM18.5 0h-17C.67 0 0 .67 0 1.5v17c0 .83.67 1.5 1.5 1.5h17c.83 0 1.5-.67 1.5-1.5v-17c0-.83-.67-1.5-1.5-1.5zm.5 18.5a.5.5 0 0 1-.5.5h-17a.5.5 0 0 1-.5-.5v-17c0-.27.23-.5.5-.5h17c.27 0 .5.23.5.5v17z"/>
  </svg>
  <svg id="align-middle" viewBox="0 0 20 20">
    <path d="M3.12 8h13.75c.69 0 1.13.4 1.13 1v2.01c0 .6-.45.99-1.13.99H3.13C2.44 12 2 11.6 2 11V9C2 8.4 2.45 8 3.13 8V8zM18.5 0h-17C.67 0 0 .67 0 1.5v17c0 .83.67 1.5 1.5 1.5h17c.83 0 1.5-.67 1.5-1.5v-17c0-.83-.67-1.5-1.5-1.5zm.5 18.5a.5.5 0 0 1-.5.5h-17a.5.5 0 0 1-.5-.5v-17c0-.27.23-.5.5-.5h17c.27 0 .5.23.5.5v17z"/>
  </svg>
  <svg id="align-top" viewBox="0 0 20 20">
    <path d="M3.12 2h13.75c.69 0 1.13.4 1.13 1v2.01c0 .6-.45.99-1.13.99H3.13C2.44 6 2 5.6 2 5V3C2 2.4 2.45 2 3.13 2V2zM18.5 0h-17C.67 0 0 .67 0 1.5v17c0 .83.67 1.5 1.5 1.5h17c.83 0 1.5-.67 1.5-1.5v-17c0-.83-.67-1.5-1.5-1.5zm.5 18.5a.5.5 0 0 1-.5.5h-17a.5.5 0 0 1-.5-.5v-17c0-.27.23-.5.5-.5h17c.27 0 .5.23.5.5v17z"/>
  </svg>
  <svg id="crop" viewBox="0 0 20 20">
    <path d="M3.33 0v3.33H0V5h3.33v11.67H15V20h1.67v-3.33H20V15h-3.33V3.92l2.5-2.5-.6-.59-2.5 2.5H5V0H3.33zM5 5h9.4L5 14.41V5zm10 .6V15H5.59L15 5.6z"/>
  </svg>
  <svg id="border" viewBox="0 0 20 20">
    <path d="M2.22 2.22h15.56v15.56H2.22V2.22z" fill-opacity="0.1"/>
    <path d="M18.89 0H1.1C.5 0 0 .5 0 1.11V18.9C0 19.55.44 20 1.11 20H18.9c.66 0 1.11-.45 1.11-1.11V1.1C20 .44 19.55 0 18.89 0zm-1.11 17.78H2.22V2.22h15.56v15.56z"/>
  </svg>
  <svg id="circle" viewBox="0 0 20 20">
    <path d="M10 20a10 10 0 1 1 0-20 10 10 0 0 1 0 20z"/>
  </svg>
  <svg id="corner-rounded" viewBox="0 0 20 20">
    <path d="M0 16.67C0 7.47 7.46 0 16.67 0H20v20H0v-3.33z"/>
  </svg>
  <svg id="duplicate" viewBox="0 0 20 20">
    <path d="M20 15.56V1.1C20 .44 19.55 0 18.9 0H4.43c-.66 0-1.1.45-1.1 1.11v2.23H1.1C.44 3.34 0 3.78 0 4.44V18.9C0 19.5.5 20 1.11 20h14.45c.66 0 1.1-.45 1.1-1.1v-2.24h2.23c.66 0 1.11-.44 1.11-1.1zm-1.1 0h-2.24V4.44c0-.66-.44-1.1-1.1-1.1H4.44V1.1H18.9V.56v15z"/>
  </svg>
  <svg id="expand-vertical" viewBox="0 0 20 20">
    <path d="M1.11 8.89H18.9a1.11 1.11 0 1 1 0 2.22H1.1a1.11 1.11 0 0 1 0-2.22zM10 0l4.44 5.56H5.56L10 0zm0 20l-4.44-5.56h8.88L10 20z"/>
  </svg>
  <symbol id="image" viewBox="0 0 20 20">
    <path d="M17.65 2.5H2.35A2.34 2.34 0 0 0 0 4.8v10.4c0 1.26 1.06 2.3 2.35 2.3h15.3c1.29 0 2.35-1.04 2.35-2.3V4.8c0-1.26-1.06-2.3-2.35-2.3zM2.35 12.88l3.53-3.46 3.3 2.43 3.76-4.73 4.7 5.76H2.36z"/>
  </symbol>
  <svg id="margin" viewBox="0 0 20 20">
    <path d="M12.63 0H7.37v1.05h2.1v2.1h1.06v-2.1h2.1V0zM0 7.37v5.26h1.05v-2.1h2.1V9.48h-2.1V7.37H0zm20 5.26V7.37h-1.05v2.1h-2.1v1.06h2.1v2.1H20zM12.63 20H7.37v-1.05h2.1v-2.1h1.06v2.1h2.1V20zM5.26 5.26v9.48h9.48V5.26H5.26zm7.37 7.37H7.37V7.37h5.26v5.26z"/>
  </svg>
  <svg id="margin-bottom" viewBox="0 0 20 20">
    <path d="M3.75 1.25h12.5v2.5H3.75v-2.5zM0 5h2.5v10H0V5zm17.5 0H20v10h-2.5V5z" fill-opacity="0.4"/>
    <path d="M3.75 16.25h12.5v2.5H3.75v-2.5z"/>
  </svg>
  <svg id="margin-left" viewBox="0 0 20 20">
    <path d="M3.75 1.25h12.5v2.5H3.75v-2.5zm0 15h12.5v2.5H3.75v-2.5zM17.5 5H20v10h-2.5V5z" fill-opacity="0.4"/>
    <path d="M0 5h2.5v10H0V5z"/>
  </svg>
  <svg id="margin-right" viewBox="0 0 20 20">
    <path d="M3.75 1.25h12.5v2.5H3.75v-2.5zm0 15h12.5v2.5H3.75v-2.5zM0 5h2.5v10H0V5z" fill-opacity="0.4"/>
    <path d="M17.5 5H20v10h-2.5V5z"/>
  </svg>
  <svg id="margin-top" viewBox="0 0 20 20">
    <path d="M3.75 16.25h12.5v2.5H3.75v-2.5zM0 5h2.5v10H0V5zm17.5 0H20v10h-2.5V5z" fill-opacity="0.4"/>
    <path d="M3.75 1.25h12.5v2.5H3.75v-2.5z"/>
  </svg>
  <svg id="move" viewBox="0 0 20 20">
    <path d="M19.67 9.32l-3.34-2.5A.83.83 0 0 0 15 7.5v1.04c0 .12-.1.21-.2.21h-3.34a.2.2 0 0 1-.21-.2V5.2c0-.12.1-.21.21-.21h1.04c.46 0 .84-.38.84-.84a.83.83 0 0 0-.17-.5L10.67.32a.86.86 0 0 0-1.34 0l-2.5 3.33A.84.84 0 0 0 7.5 5h1.04c.12 0 .21.09.21.2v3.34c0 .12-.1.21-.2.21H5.2a.2.2 0 0 1-.21-.2V7.48a.83.83 0 0 0-1.33-.67L.33 9.32a.83.83 0 0 0 0 1.34l3.34 2.5A.83.83 0 0 0 5 12.49v-1.04c0-.11.1-.2.2-.2h3.34c.12 0 .2.09.2.2v3.34a.2.2 0 0 1-.2.2H7.5a.83.83 0 0 0-.67 1.34l2.5 3.34c.28.37.8.44 1.17.17.06-.05.12-.1.16-.17l2.5-3.34A.83.83 0 0 0 12.5 15h-1.04a.21.21 0 0 1-.21-.21v-3.34c0-.11.1-.2.21-.2h3.33c.12 0 .2.09.2.2v1.04a.83.83 0 0 0 1.34.67l3.34-2.5a.84.84 0 0 0 0-1.34z"/>
  </svg>
  <svg id="padding" viewBox="0 0 20 20">
    <path d="M8.89 8.89h10v10h-10v-10z" fill-opacity="0.4"/>
    <path d="M0 0v20h20V0H0zm18.89 18.89H1.1V1.1H18.9V18.9zM6.67 2.22v1.11H4.1L7.78 6.9l-.9.89L3.34 4.1v2.56h-1.1V2.22h4.44z"/>
  </svg>
  <svg id="trash" viewBox="0 0 20 20">
    <path d="M2.5 17.5A2.5 2.5 0 0 0 5 20h10a2.5 2.5 0 0 0 2.5-2.5v-10h-15v10zM15 3.75v-2.5C15 .56 14.44 0 13.75 0h-7.5C5.56 0 5 .56 5 1.25v2.5H0v2.5h20v-2.5h-5zm-2.5 0h-5V2.5h5v1.25z"/>
  </svg>Z
</svg>
